<svg width="86" height="86" viewBox="0 0 86 86" fill="none" xmlns="http://www.w3.org/2000/svg">
<path d="M86 43C86 66.7482 66.7482 86 43 86C19.2518 86 0 66.7482 0 43C0 19.2518 19.2518 0 43 0C66.7482 0 86 19.2518 86 43ZM3.63227 43C3.63227 64.7422 21.2578 82.3677 43 82.3677C64.7422 82.3677 82.3677 64.7422 82.3677 43C82.3677 21.2578 64.7422 3.63227 43 3.63227C21.2578 3.63227 3.63227 21.2578 3.63227 43Z" fill="#B9E5D1"/>
<path d="M43 1.81613C43 0.813111 43.8136 -0.00400311 44.8157 0.0383446C51.7328 0.330645 58.4868 2.28958 64.4982 5.75985C71.0346 9.53321 76.4627 14.9605 80.237 21.4963C84.0113 28.0322 85.9989 35.4463 86 42.9937C86.001 49.9348 84.3218 56.7638 81.1176 62.9009C80.6534 63.79 79.5391 64.0863 78.6703 63.5849V63.5849C77.8016 63.0836 77.5078 61.9747 77.9685 61.0837C80.856 55.5002 82.3687 49.2977 82.3677 42.9942C82.3667 36.0844 80.547 29.2965 77.0915 23.3128C73.636 17.329 68.6664 12.3602 62.6822 8.90558C57.223 5.75407 51.0948 3.96401 44.8156 3.67415C43.8136 3.6279 43 2.81916 43 1.81613V1.81613Z" fill="#068745"/>
<circle cx="43" cy="43" r="35" fill="#068745"/>
</svg>
