<svg width="86" height="86" viewBox="0 0 86 86" fill="none" xmlns="http://www.w3.org/2000/svg">
<path d="M86 43C86 66.7482 66.7482 86 43 86C19.2518 86 0 66.7482 0 43C0 19.2518 19.2518 0 43 0C66.7482 0 86 19.2518 86 43ZM3.63227 43C3.63227 64.7422 21.2578 82.3677 43 82.3677C64.7422 82.3677 82.3677 64.7422 82.3677 43C82.3677 21.2578 64.7422 3.63227 43 3.63227C21.2578 3.63227 3.63227 21.2578 3.63227 43Z" fill="#B9E5D1"/>
<path d="M43 1.81613C43 0.813111 43.8136 -0.00400312 44.8157 0.0383446C51.7245 0.330294 58.4707 2.28487 64.4768 5.74752C71.0081 9.51295 76.4346 14.9294 80.2123 21.4536C83.9899 27.9779 85.9858 35.3807 85.9999 42.9196C86.014 50.4586 84.0458 57.8688 80.2926 64.4071C76.5393 70.9455 71.1331 76.3821 64.6159 80.1719C58.0987 83.9618 50.6997 85.9715 43.1607 85.9997C35.6218 86.0279 28.2079 84.0735 21.6626 80.3325C15.6436 76.8923 10.5536 72.0525 6.8173 66.2339C6.27535 65.3899 6.57066 64.2753 7.43679 63.7694V63.7694C8.30293 63.2636 9.4116 63.5583 9.95683 64.4002C13.3697 69.6699 17.9989 74.0548 23.465 77.179C29.4574 80.604 36.245 82.3933 43.1472 82.3675C50.0493 82.3417 56.8233 80.5017 62.79 77.032C68.7566 73.5623 73.7062 68.5849 77.1424 62.5988C80.5786 56.6128 82.3806 49.8286 82.3677 42.9264C82.3548 36.0243 80.5274 29.2468 77.0689 23.2737C73.6104 17.3005 68.6422 12.3416 62.6626 8.89429C57.2083 5.74974 51.0872 3.96366 44.8156 3.67415C43.8136 3.6279 43 2.81916 43 1.81613V1.81613Z" fill="#068745"/>
<circle cx="43" cy="43" r="35" fill="#068745"/>
</svg>
